<svg width="20" height="20" viewBox="0 0 20 20" fill="none" xmlns="http://www.w3.org/2000/svg">
<path d="M4.16602 6.87887C5.22083 7.04222 6.3975 7.31381 7.49935 7.7399M4.16602 10.2122C4.69892 10.2947 5.26293 10.4049 5.83268 10.5486M9.99935 5.04447V16.9187M3.32796 2.50939C5.1766 2.71829 7.66029 3.28027 9.43004 4.52037C9.77017 4.75871 10.2285 4.75871 10.5687 4.52037C12.3384 3.28027 14.8221 2.71829 16.6707 2.50939C17.5857 2.40601 18.3327 3.17002 18.3327 4.11265V13.5C18.3327 14.4426 17.5857 15.2069 16.6707 15.3103C14.8221 15.5192 12.3384 16.0811 10.5687 17.3212C10.2285 17.5596 9.77017 17.5596 9.43004 17.3212C7.66029 16.0811 5.1766 15.5192 3.32796 15.3103C2.41304 15.2069 1.66602 14.4426 1.66602 13.5V4.11265C1.66602 3.17002 2.41304 2.40601 3.32796 2.50939Z" stroke="#4D3A92" stroke-width="1.5" stroke-linecap="round"/>
</svg>
