<svg width="21" height="16" viewBox="0 0 21 16" fill="none" xmlns="http://www.w3.org/2000/svg">
<path d="M16.3333 0.5H4.66667C3.562 0.501323 2.50296 0.940735 1.72185 1.72185C0.940735 2.50296 0.501323 3.562 0.5 4.66667H20.5C20.4987 3.562 20.0593 2.50296 19.2782 1.72185C18.497 0.940735 17.438 0.501323 16.3333 0.5ZM0.5 11.3333C0.501323 12.438 0.940735 13.497 1.72185 14.2782C2.50296 15.0593 3.562 15.4987 4.66667 15.5H16.3333C17.438 15.4987 18.497 15.0593 19.2782 14.2782C20.0593 13.497 20.4987 12.438 20.5 11.3333V6.33333H0.5V11.3333ZM6.33333 10.9167C6.33333 11.1639 6.26002 11.4056 6.12267 11.6111C5.98532 11.8167 5.7901 11.9769 5.56169 12.0715C5.33328 12.1661 5.08195 12.1909 4.83947 12.1426C4.59699 12.0944 4.37427 11.9754 4.19945 11.8005C4.02463 11.6257 3.90558 11.403 3.85735 11.1605C3.80912 10.9181 3.83387 10.6667 3.92848 10.4383C4.02309 10.2099 4.18331 10.0147 4.38887 9.87733C4.59443 9.73998 4.83611 9.66667 5.08333 9.66667C5.41485 9.66667 5.7328 9.79836 5.96722 10.0328C6.20164 10.2672 6.33333 10.5851 6.33333 10.9167Z" fill="white"/>
</svg>
