<svg width="21" height="16" viewBox="0 0 21 16" fill="none" xmlns="http://www.w3.org/2000/svg">
<path d="M10.5 11.3334C8.66167 11.3334 7.16667 9.83843 7.16667 8.0001C7.16667 6.16177 8.66167 4.66677 10.5 4.66677C12.3383 4.66677 13.8333 6.16177 13.8333 8.0001C13.8333 9.83843 12.3383 11.3334 10.5 11.3334ZM10.5 6.33343C9.58083 6.33343 8.83333 7.08093 8.83333 8.0001C8.83333 8.91927 9.58083 9.66677 10.5 9.66677C11.4192 9.66677 12.1667 8.91927 12.1667 8.0001C12.1667 7.08093 11.4192 6.33343 10.5 6.33343ZM4.66667 3.83343C4.44565 3.83343 4.23369 3.92123 4.07741 4.07751C3.92113 4.23379 3.83333 4.44575 3.83333 4.66677C3.83333 4.88778 3.92113 5.09974 4.07741 5.25602C4.23369 5.4123 4.44565 5.5001 4.66667 5.5001C4.88768 5.5001 5.09964 5.4123 5.25592 5.25602C5.4122 5.09974 5.5 4.88778 5.5 4.66677C5.5 4.44575 5.4122 4.23379 5.25592 4.07751C5.09964 3.92123 4.88768 3.83343 4.66667 3.83343ZM15.5 6.33343C15.5 6.55445 15.5878 6.76641 15.7441 6.92269C15.9004 7.07897 16.1123 7.16677 16.3333 7.16677C16.5543 7.16677 16.7663 7.07897 16.9226 6.92269C17.0789 6.76641 17.1667 6.55445 17.1667 6.33343C17.1667 6.11242 17.0789 5.90046 16.9226 5.74418C16.7663 5.5879 16.5543 5.5001 16.3333 5.5001C16.1123 5.5001 15.9004 5.5879 15.7441 5.74418C15.5878 5.90046 15.5 6.11242 15.5 6.33343ZM4.66667 8.83343C4.44565 8.83343 4.23369 8.92123 4.07741 9.07751C3.92113 9.23379 3.83333 9.44575 3.83333 9.66677C3.83333 9.88778 3.92113 10.0997 4.07741 10.256C4.23369 10.4123 4.44565 10.5001 4.66667 10.5001C4.88768 10.5001 5.09964 10.4123 5.25592 10.256C5.4122 10.0997 5.5 9.88778 5.5 9.66677C5.5 9.44575 5.4122 9.23379 5.25592 9.07751C5.09964 8.92123 4.88768 8.83343 4.66667 8.83343ZM15.5 11.3334C15.5 11.5544 15.5878 11.7664 15.7441 11.9227C15.9004 12.079 16.1123 12.1668 16.3333 12.1668C16.5543 12.1668 16.7663 12.079 16.9226 11.9227C17.0789 11.7664 17.1667 11.5544 17.1667 11.3334C17.1667 11.1124 17.0789 10.9005 16.9226 10.7442C16.7663 10.5879 16.5543 10.5001 16.3333 10.5001C16.1123 10.5001 15.9004 10.5879 15.7441 10.7442C15.5878 10.9005 15.5 11.1124 15.5 11.3334ZM14.6675 15.5001C13.3008 15.5001 11.7608 15.0601 10.2717 14.6343C8.89333 14.2401 7.4675 13.8334 6.33417 13.8334C4.05833 13.8334 1.71 14.9193 1.68583 14.9293L0.5 15.4843V3.9651C0.5 3.0251 1.015 2.1751 1.84583 1.74593C2.95 1.17677 4.62333 0.499268 6.33417 0.499268C7.71917 0.499268 9.05583 0.945101 10.3475 1.3751C11.5667 1.78177 12.7183 2.16593 13.8333 2.16593C14.9883 2.16593 15.9308 1.86427 16.6883 1.62177C16.94 1.54093 17.1692 1.4676 17.3783 1.4126C17.7449 1.31416 18.1293 1.30206 18.5013 1.37725C18.8734 1.45244 19.2229 1.61287 19.5225 1.84593C19.8278 2.07912 20.075 2.37982 20.2448 2.72448C20.4145 3.06914 20.5021 3.44842 20.5008 3.8326V14.0701L20.0117 14.2918C19.9025 14.3418 17.3175 15.5001 14.6675 15.5001ZM6.33417 12.1668C7.70083 12.1668 9.24083 12.6068 10.73 13.0326C12.1092 13.4268 13.5342 13.8334 14.6675 13.8334C16.3342 13.8334 18.0258 13.2793 18.8342 12.9734V3.83343C18.8346 3.70462 18.8052 3.57746 18.7482 3.46194C18.6913 3.34641 18.6083 3.24566 18.5058 3.1676C18.4079 3.09115 18.2935 3.03849 18.1718 3.01376C18.05 2.98903 17.9242 2.99291 17.8042 3.0251C17.62 3.07427 17.4175 3.13927 17.1958 3.2101C16.3742 3.4726 15.2475 3.83343 13.8333 3.83343C12.4483 3.83343 11.1117 3.3876 9.82 2.9576C8.60083 2.55093 7.44917 2.16677 6.33417 2.16677C4.885 2.16677 3.37833 2.83177 2.60917 3.2276C2.47444 3.29769 2.36173 3.40367 2.28349 3.53382C2.20524 3.66398 2.16453 3.81324 2.16583 3.9651V12.9501C3.19083 12.5943 4.75167 12.1668 6.33417 12.1668Z" fill="#545454"/>
</svg>
