<svg width="20" height="20" viewBox="0 0 20 20" fill="none" xmlns="http://www.w3.org/2000/svg">
<path d="M19.5759 9.6975C19.905 8.91991 19.9565 8.05274 19.7217 7.24167C19.576 6.73478 19.3246 6.26449 18.984 5.86175C18.6435 5.45901 18.2215 5.13294 17.7459 4.905C17.5842 4.8275 17.4684 4.68417 17.4517 4.54C17.396 4.03365 17.2362 3.5443 16.9822 3.10273C16.7282 2.66116 16.3856 2.27692 15.9759 1.97417C15.5728 1.67281 15.1123 1.4571 14.6228 1.34031C14.1332 1.22351 13.625 1.20809 13.1292 1.295C12.9709 1.31833 12.7817 1.24417 12.6317 1.09333C11.9259 0.388333 10.9917 0 10.0001 0C9.0084 0 8.0734 0.388333 7.3684 1.09333C7.21757 1.245 7.0259 1.32 6.87007 1.295C6.37447 1.20851 5.86642 1.22413 5.37707 1.34091C4.88772 1.4577 4.42737 1.67319 4.02424 1.97417C3.61433 2.27676 3.27152 2.66095 3.01738 3.10254C2.76324 3.54413 2.60328 4.03356 2.54757 4.54C2.5309 4.68333 2.4159 4.82667 2.25424 4.905C1.77858 5.13302 1.35655 5.45911 1.01588 5.86183C0.675204 6.26455 0.423591 6.73479 0.277571 7.24167C0.0434047 8.05917 0.094238 8.90833 0.423405 9.6975C0.506738 9.89667 0.506738 10.1075 0.423405 10.3067C0.0942997 11.0843 0.0428056 11.9514 0.277571 12.7625C0.423439 13.2695 0.674986 13.74 1.01567 14.1429C1.35636 14.5457 1.77846 14.8719 2.25424 15.1C2.4134 15.1767 2.5309 15.3233 2.54757 15.465C2.60337 15.9713 2.76329 16.4606 3.01727 16.9022C3.27124 17.3438 3.6138 17.728 4.0234 18.0308C4.42643 18.3317 4.88664 18.5471 5.37584 18.6639C5.86504 18.7807 6.37293 18.7964 6.8684 18.71C7.02507 18.685 7.2159 18.7608 7.36674 18.9108C8.07174 19.6167 9.00674 20.0042 9.9984 20.0042C10.9901 20.0042 11.9251 19.6158 12.6301 18.9108C12.7809 18.7592 12.9734 18.6775 13.1276 18.7092C13.6233 18.7952 14.1314 18.7793 14.6208 18.6626C15.1102 18.5458 15.5707 18.3306 15.9742 18.03C16.3842 17.7272 16.727 17.3429 16.9811 16.9012C17.2353 16.4594 17.3952 15.9699 17.4509 15.4633C17.4676 15.3225 17.5851 15.1758 17.7442 15.0992C18.2199 14.871 18.642 14.5447 18.9826 14.1419C19.3233 13.739 19.5749 13.2686 19.7209 12.7617C19.9551 11.945 19.9042 11.095 19.5751 10.3058C19.5338 10.2096 19.5126 10.106 19.5126 10.0013C19.5126 9.89654 19.5338 9.79292 19.5751 9.69667L19.5759 9.6975ZM18.0376 10.9483C18.2201 11.385 18.2484 11.8533 18.1192 12.3033C18.0383 12.5841 17.8989 12.8445 17.7102 13.0675C17.5215 13.2906 17.2877 13.4712 17.0242 13.5975C16.3484 13.9217 15.8784 14.5633 15.7967 15.2725C15.7662 15.5526 15.6781 15.8234 15.5378 16.0678C15.3976 16.3122 15.2082 16.5249 14.9817 16.6925C14.7587 16.8591 14.5038 16.9781 14.2329 17.0424C13.962 17.1066 13.6808 17.1146 13.4067 17.0658C12.7201 16.9508 11.9876 17.1992 11.4534 17.7325C10.6717 18.5142 9.3284 18.5142 8.5459 17.7325C8.0984 17.2858 7.5134 17.0392 6.93007 17.0392C6.81757 17.0392 6.70424 17.0483 6.5934 17.0667C6.31943 17.1151 6.03844 17.1069 5.76773 17.0427C5.49702 16.9785 5.2423 16.8596 5.01924 16.6933C4.79308 16.5256 4.60402 16.313 4.46391 16.0688C4.32381 15.8246 4.23568 15.554 4.20507 15.2742C4.12257 14.5642 3.65257 13.9225 2.97757 13.5983C2.71393 13.4722 2.47998 13.2916 2.29111 13.0686C2.10224 12.8455 1.96272 12.585 1.88174 12.3042C1.75246 11.8565 1.7813 11.378 1.9634 10.9492C2.08964 10.6495 2.15468 10.3277 2.15468 10.0025C2.15468 9.67735 2.08964 9.35548 1.9634 9.05583C1.7813 8.62697 1.75246 8.14847 1.88174 7.70083C1.96126 7.41942 2.10023 7.15834 2.28927 6.93522C2.47832 6.71211 2.71303 6.53215 2.97757 6.4075C3.6534 6.0825 4.1234 5.44083 4.20507 4.73167C4.23569 4.45169 4.3239 4.18108 4.46416 3.93685C4.60441 3.69262 4.79369 3.48005 5.02007 3.3125C5.24306 3.14636 5.49761 3.02748 5.76815 2.96314C6.03868 2.8988 6.3195 2.89036 6.5934 2.93833C7.28174 3.05583 8.0134 2.80583 8.54757 2.2725C9.32924 1.49083 10.6726 1.49083 11.4551 2.2725C11.9892 2.80583 12.7217 3.05667 13.4092 2.93833C13.685 2.88994 13.9677 2.89863 14.2399 2.96385C14.5121 3.02908 14.7681 3.14945 14.992 3.31754C15.2158 3.48563 15.4028 3.69785 15.5414 3.94108C15.6799 4.18432 15.7671 4.45339 15.7976 4.73167C15.8792 5.44083 16.3501 6.0825 17.0251 6.4075C17.2897 6.53201 17.5245 6.71193 17.7136 6.93506C17.9026 7.1582 18.0415 7.41935 18.1209 7.70083C18.2501 8.15083 18.2217 8.62 18.0392 9.05583C17.913 9.35548 17.848 9.67735 17.848 10.0025C17.848 10.3277 17.913 10.6495 18.0392 10.9492L18.0376 10.9483ZM6.6659 10.4158C6.66585 10.58 6.63345 10.7426 6.57056 10.8943C6.50767 11.046 6.41552 11.1838 6.29937 11.2999C6.18322 11.416 6.04535 11.508 5.89362 11.5708C5.74189 11.6336 5.57928 11.6659 5.41507 11.6658C5.25086 11.6658 5.08828 11.6334 4.93659 11.5705C4.7849 11.5076 4.64709 11.4155 4.53101 11.2993C4.41494 11.1832 4.32288 11.0453 4.26009 10.8935C4.19731 10.7418 4.16502 10.5792 4.16507 10.415C4.16518 10.0834 4.29703 9.76536 4.5316 9.53094C4.76618 9.29652 5.08427 9.16489 5.4159 9.165C5.74754 9.16511 6.06554 9.29696 6.29996 9.53153C6.53438 9.76611 6.66602 10.0842 6.6659 10.4158ZM9.99924 14.5825C9.99913 14.9141 9.86728 15.2321 9.6327 15.4666C9.39813 15.701 9.08004 15.8326 8.7484 15.8325C8.41677 15.8324 8.09877 15.7005 7.86435 15.466C7.62993 15.2314 7.49829 14.9133 7.4984 14.5817C7.49846 14.4175 7.53086 14.2549 7.59375 14.1032C7.65664 13.9515 7.74879 13.8137 7.86494 13.6976C7.98109 13.5815 8.11896 13.4895 8.27069 13.4267C8.42242 13.3639 8.58503 13.3316 8.74924 13.3317C8.91344 13.3317 9.07603 13.3641 9.22772 13.427C9.37941 13.4899 9.51722 13.582 9.63329 13.6982C9.74937 13.8144 9.84143 13.9522 9.90421 14.104C9.967 14.2557 9.99929 14.4183 9.99924 14.5825ZM7.49924 5.41583C7.49929 5.25163 7.53169 5.08904 7.59458 4.93735C7.65747 4.78566 7.74962 4.64785 7.86577 4.53178C7.98192 4.4157 8.1198 4.32365 8.27153 4.26086C8.42325 4.19807 8.58586 4.16578 8.75007 4.16583C8.91428 4.16589 9.07687 4.19829 9.22855 4.26118C9.38024 4.32407 9.51805 4.41622 9.63413 4.53237C9.7502 4.64852 9.84226 4.78639 9.90505 4.93812C9.96784 5.08985 10.0001 5.25246 10.0001 5.41667C10.0001 5.74819 9.86837 6.06613 9.63396 6.30055C9.39953 6.53497 9.08159 6.66667 8.75007 6.66667C8.41855 6.66667 8.10061 6.53497 7.86619 6.30055C7.63177 6.06613 7.50007 5.74819 7.50007 5.41667L7.49924 5.41583ZM11.6659 9.5825C11.6658 9.91413 11.5339 10.2321 11.2994 10.4666C11.0648 10.701 10.7467 10.8326 10.4151 10.8325C10.0834 10.8324 9.76544 10.7005 9.53102 10.466C9.29659 10.2314 9.16496 9.9133 9.16507 9.58167C9.16518 9.25004 9.29703 8.93203 9.5316 8.69761C9.76618 8.46319 10.0843 8.33156 10.4159 8.33167C10.7475 8.33178 11.0655 8.46362 11.3 8.6982C11.5344 8.93278 11.666 9.25087 11.6659 9.5825ZM15.8326 11.2492C15.8325 11.4134 15.8001 11.576 15.7372 11.7276C15.6743 11.8793 15.5822 12.0171 15.466 12.1332C15.3499 12.2493 15.212 12.3414 15.0603 12.4041C14.9086 12.4669 14.7459 12.4992 14.5817 12.4992C14.4175 12.4991 14.2549 12.4667 14.1033 12.4038C13.9516 12.3409 13.8138 12.2488 13.6977 12.1326C13.5816 12.0165 13.4895 11.8786 13.4268 11.7269C13.364 11.5752 13.3317 11.4125 13.3317 11.2483C13.3318 10.9167 13.4637 10.5987 13.6983 10.3643C13.9328 10.1299 14.2509 9.99822 14.5826 9.99833C14.9142 9.99844 15.2322 10.1303 15.4666 10.3649C15.701 10.5994 15.8327 10.9175 15.8326 11.2492Z" fill="#545454"/>
</svg>
