<svg width="20" height="20" viewBox="0 0 20 20" fill="none" xmlns="http://www.w3.org/2000/svg">
<path d="M19.0808 7.16083C18.0683 5.4425 16.2658 2.94833 13.4308 0.83C12.6892 0.276667 11.7908 0.00416667 10.8633 0C10.0189 0.00974786 9.19545 0.264823 8.49334 0.734167C8.44167 0.769167 1.37084 8.22083 1.37084 8.22083C0.488688 9.14832 -0.0022514 10.38 7.76253e-06 11.66V15.8325C7.76253e-06 18.13 1.86917 19.9992 4.16667 19.9992H15.8333C18.1308 19.9992 20 18.13 20 15.8325V10.5408C20.0011 9.35191 19.6834 8.18444 19.08 7.16L19.0808 7.16083ZM1.66751 11.6667H18.3342V14.1667H1.66751V11.6667ZM9.49167 2.07333C9.90971 1.8132 10.391 1.67255 10.8833 1.66667C11.4412 1.65498 11.9868 1.83042 12.4333 2.165C15.0458 4.11833 16.71 6.42 17.645 8.0075C18.0042 8.61667 18.2275 9.29667 18.3033 10H2.11001C2.24156 9.77144 2.3999 9.55939 2.58167 9.36833L9.49167 2.07333ZM15.8342 18.3333H4.16751C2.78917 18.3333 1.66751 17.2117 1.66751 15.8333H18.3342C18.3342 17.2117 17.2125 18.3333 15.8342 18.3333Z" fill="#545454"/>
</svg>
