<svg width="20" height="20" viewBox="0 0 20 20" fill="none" xmlns="http://www.w3.org/2000/svg">
<path d="M10 0C4.5 0 0.025 4.46333 0.0025 9.9575C0.0025 9.96167 0 9.96417 0 9.96833L0.00166667 9.975L0 10C0 15.5142 4.48583 20 10 20C11.7567 20 13.4858 19.5367 15 18.6617C15.0988 18.6091 15.1861 18.5372 15.2565 18.4501C15.3269 18.3631 15.3791 18.2628 15.4098 18.1552C15.4406 18.0476 15.4494 17.9349 15.4357 17.8238C15.422 17.7127 15.386 17.6055 15.33 17.5086C15.2739 17.4117 15.1989 17.3271 15.1094 17.2598C15.0199 17.1926 14.9178 17.144 14.8092 17.1171C14.7005 17.0901 14.5876 17.0854 14.477 17.1031C14.3665 17.1207 14.2607 17.1605 14.1658 17.22C12.8987 17.9503 11.4617 18.3345 9.99917 18.3342C5.70333 18.3342 2.15833 15.0667 1.71417 10.8867C1.89917 10.9458 2.075 11.0325 2.23167 11.155C2.6575 11.485 3.19667 11.6675 3.74917 11.6675C4.30167 11.6675 4.84167 11.485 5.26667 11.155C5.46167 11.0033 5.68833 10.9183 5.925 10.8642C6.12383 11.7977 6.63673 12.6349 7.37814 13.236C8.11956 13.8372 9.04467 14.1659 9.99917 14.1675C10.9592 14.1659 11.8893 13.8336 12.6329 13.2265C13.3765 12.6193 13.8881 11.7744 14.0817 10.8342H14.1658C14.6158 10.8342 14.9817 11.1992 14.9992 11.6642V15.0008C14.9992 15.2218 15.087 15.4338 15.2432 15.5901C15.3995 15.7464 15.6115 15.8342 15.8325 15.8342C16.0535 15.8342 16.2655 15.7464 16.4218 15.5901C16.578 15.4338 16.6658 15.2218 16.6658 15.0008V11.6658C16.6825 11.1992 17.0483 10.8342 17.4992 10.8342C17.9583 10.8342 18.3325 11.2075 18.3325 11.6675V17.5008C18.3325 17.7218 18.4203 17.9338 18.5766 18.0901C18.7329 18.2464 18.9448 18.3342 19.1658 18.3342C19.3868 18.3342 19.5988 18.2464 19.7551 18.0901C19.9114 17.9338 19.9992 17.7218 19.9992 17.5008V10.0008C20 4.48583 15.5142 0 10 0ZM10 12.5C8.62167 12.5 7.5 11.3783 7.5 10C7.5 8.62167 8.62167 7.5 10 7.5C11.3783 7.5 12.5 8.62167 12.5 10C12.5 11.3783 11.3783 12.5 10 12.5ZM17.5 9.16667C16.8831 9.16675 16.2888 9.39877 15.835 9.81667C15.3798 9.3989 14.7845 9.16697 14.1667 9.16667H14.0825C13.695 7.2675 12.0125 5.83333 10 5.83333C7.9875 5.83333 6.305 7.26667 5.9175 9.16583C5.30865 9.23029 4.72964 9.46253 4.245 9.83667C3.97667 10.0458 3.52583 10.0475 3.255 9.83667C2.805 9.48679 2.27222 9.25916 1.70833 9.17583C2.12333 4.96667 5.68333 1.66667 10 1.66667C14.3617 1.66667 17.945 5.0375 18.2983 9.30917C18.0419 9.21795 17.7722 9.1698 17.5 9.16667Z" fill="#545454"/>
</svg>
