<svg width="20" height="20" viewBox="0 0 20 20" fill="none" xmlns="http://www.w3.org/2000/svg">
<path d="M20 5.83334V14.1667C20 15.545 18.8783 16.6667 17.5 16.6667H12.9167C12.6957 16.6667 12.4837 16.5789 12.3274 16.4226C12.1711 16.2663 12.0833 16.0544 12.0833 15.8333C12.0833 15.6123 12.1711 15.4004 12.3274 15.2441C12.4837 15.0878 12.6957 15 12.9167 15H17.5C17.96 15 18.3333 14.6258 18.3333 14.1667V5.83334C18.3333 5.37418 17.96 5.00001 17.5 5.00001H5C4.09837 4.99803 3.2216 4.70421 2.50083 4.16251V6.66668C2.50083 6.88769 2.41304 7.09965 2.25676 7.25593C2.10048 7.41221 1.88851 7.50001 1.6675 7.50001C1.44649 7.50001 1.23452 7.41221 1.07824 7.25593C0.921964 7.09965 0.834167 6.88769 0.834167 6.66668V4.16668C0.85 1.92001 2.68667 -0.00499028 5 9.71852e-06H19.1667C19.3877 9.71852e-06 19.5996 0.0878071 19.7559 0.244087C19.9122 0.400368 20 0.612329 20 0.833343C20 1.05436 19.9122 1.26632 19.7559 1.4226C19.5996 1.57888 19.3877 1.66668 19.1667 1.66668H5C4.26583 1.66668 3.61083 1.99084 3.1525 2.49668C3.38481 2.75759 3.66927 2.96687 3.9875 3.11099C4.30573 3.2551 4.65066 3.33085 5 3.33334H17.5C18.8783 3.33334 20 4.45501 20 5.83334ZM16.6667 10C16.6666 9.8358 16.6342 9.67321 16.5713 9.52153C16.5084 9.36984 16.4163 9.23203 16.3001 9.11595C16.184 8.99988 16.0461 8.90782 15.8944 8.84503C15.7426 8.78224 15.58 8.74996 15.4158 8.75001C15.2516 8.75006 15.089 8.78246 14.9374 8.84535C14.7857 8.90824 14.6479 9.00039 14.5318 9.11654C14.4157 9.23269 14.3236 9.37057 14.2609 9.5223C14.1981 9.67403 14.1658 9.83664 14.1658 10.0008C14.1659 10.3325 14.2978 10.6505 14.5324 10.8849C14.7669 11.1193 15.085 11.251 15.4167 11.2508C15.7483 11.2507 16.0663 11.1189 16.3007 10.8843C16.5351 10.6497 16.6668 10.3316 16.6667 10ZM1.25 17.5C1.08579 17.5001 0.923205 17.5325 0.771518 17.5954C0.619831 17.6582 0.482017 17.7504 0.365944 17.8665C0.249871 17.9827 0.157812 18.1206 0.0950229 18.2723C0.0322342 18.424 -5.4648e-05 18.5866 6.94277e-08 18.7508C5.47869e-05 18.9151 0.032452 19.0776 0.0953418 19.2293C0.158232 19.381 0.250383 19.5188 0.366533 19.6349C0.482684 19.751 0.620559 19.843 0.772288 19.9058C0.924016 19.9686 1.08663 20.0009 1.25083 20.0008C1.58246 20.0007 1.90047 19.8689 2.13489 19.6343C2.36931 19.3997 2.50094 19.0816 2.50083 18.75C2.50072 18.4184 2.36888 18.1004 2.1343 17.866C1.89972 17.6315 1.58163 17.4999 1.25 17.5ZM0.833333 13.3333C0.61232 13.3333 0.400358 13.4211 0.244078 13.5774C0.0877975 13.7337 1.06693e-07 13.9457 1.06693e-07 14.1667C1.06693e-07 14.3877 0.0877975 14.5997 0.244078 14.7559C0.400358 14.9122 0.61232 15 0.833333 15C3.13083 15 5 16.8692 5 19.1667C5 19.3877 5.0878 19.5997 5.24408 19.7559C5.40036 19.9122 5.61232 20 5.83333 20C6.05435 20 6.26631 19.9122 6.42259 19.7559C6.57887 19.5997 6.66667 19.3877 6.66667 19.1667C6.66667 15.95 4.04917 13.3333 0.833333 13.3333ZM0.833333 9.16668C0.61232 9.16668 0.400358 9.25447 0.244078 9.41075C0.0877975 9.56703 1.06693e-07 9.779 1.06693e-07 10C1.06693e-07 10.221 0.0877975 10.433 0.244078 10.5893C0.400358 10.7455 0.61232 10.8333 0.833333 10.8333C5.42833 10.8333 9.16667 14.5717 9.16667 19.1667C9.16667 19.3877 9.25446 19.5997 9.41074 19.7559C9.56702 19.9122 9.77899 20 10 20C10.221 20 10.433 19.9122 10.5893 19.7559C10.7455 19.5997 10.8333 19.3877 10.8333 19.1667C10.8333 13.6525 6.3475 9.16668 0.833333 9.16668Z" fill="#545454"/>
</svg>
