<svg width="18" height="20" viewBox="0 0 18 20" fill="none" xmlns="http://www.w3.org/2000/svg">
<path d="M16.7846 4.27083C16.5511 3.9777 16.2543 3.74112 15.9165 3.57878C15.5787 3.41644 15.2086 3.33254 14.8338 3.33333H11.228L11.3338 2.40833C11.3563 2.205 11.4528 2.01704 11.605 1.88027C11.7571 1.7435 11.9542 1.66747 12.1588 1.66667H15.6671C15.8882 1.66667 16.1001 1.57887 16.2564 1.42259C16.4127 1.26631 16.5005 1.05435 16.5005 0.833333C16.5005 0.61232 16.4127 0.400358 16.2564 0.244078C16.1001 0.0877974 15.8882 0 15.6671 0L12.1588 0C11.5436 0.000140247 10.9501 0.227099 10.4918 0.637452C10.0334 1.04781 9.74251 1.61274 9.67464 2.22417L9.5513 3.33333H3.16714C2.80079 3.33673 2.43961 3.42008 2.10881 3.57754C1.77802 3.735 1.4856 3.96279 1.25196 4.24499C1.01833 4.52719 0.849132 4.85699 0.756179 5.21136C0.663227 5.56573 0.648764 5.93613 0.713803 6.29667L1.9738 16.3517C2.10147 17.3585 2.59164 18.2843 3.35259 18.9558C4.11353 19.6273 5.09309 19.9985 6.10797 20H11.8921C12.9072 19.9984 13.8869 19.627 14.6479 18.9553C15.409 18.2837 15.8993 17.3578 16.0271 16.3508L17.2771 6.3775C17.3592 6.01194 17.3575 5.63257 17.2722 5.26776C17.1869 4.90295 17.0202 4.56214 16.7846 4.27083ZM14.8338 5C14.9588 4.99995 15.0822 5.02802 15.1948 5.08211C15.3075 5.1362 15.4065 5.21494 15.4846 5.3125C15.5683 5.42219 15.6254 5.54982 15.6512 5.68534C15.6771 5.82085 15.6712 5.96052 15.6338 6.09333L15.3521 8.33333H10.6721L11.043 5H14.8338ZM2.51797 5.31167C2.59598 5.21448 2.6948 5.13603 2.80715 5.08209C2.9195 5.02816 3.04251 5.0001 3.16714 5H9.36464L8.9938 8.33333H2.64547L2.3538 6.01333C2.32649 5.89157 2.32707 5.7652 2.3555 5.64369C2.38393 5.52218 2.43947 5.40867 2.51797 5.31167ZM14.373 16.145C14.2962 16.749 14.002 17.3043 13.5453 17.7071C13.0887 18.1099 12.501 18.3325 11.8921 18.3333H6.10797C5.49899 18.3332 4.911 18.1108 4.45437 17.7079C3.99774 17.305 3.70389 16.7492 3.62797 16.145L2.85547 10H15.143L14.373 16.145ZM10.1988 12.5917L9.8288 15.925C9.81677 16.0338 9.78342 16.1391 9.73067 16.235C9.67792 16.3309 9.6068 16.4155 9.52137 16.4839C9.43594 16.5523 9.33788 16.6032 9.23277 16.6337C9.12767 16.6642 9.01758 16.6737 8.9088 16.6617C8.80002 16.6496 8.69468 16.6163 8.59879 16.5635C8.5029 16.5108 8.41834 16.4397 8.34993 16.3542C8.28153 16.2688 8.23062 16.1707 8.20011 16.0656C8.1696 15.9605 8.1601 15.8504 8.17214 15.7417L8.54214 12.4083C8.56933 12.1897 8.6808 11.9904 8.85281 11.8528C9.02481 11.7152 9.24374 11.6502 9.46297 11.6717C9.68251 11.6962 9.88334 11.8068 10.0213 11.9794C10.1593 12.1519 10.2231 12.3721 10.1988 12.5917Z" fill="#545454"/>
</svg>
