<svg width="20" height="18" viewBox="0 0 20 18" fill="none" xmlns="http://www.w3.org/2000/svg">
<path d="M19.1667 15.8327V14.1661C19.1636 11.8805 18.3077 9.67837 16.7663 7.99076C15.225 6.30314 13.1093 5.25157 10.8333 5.0419V3.93524C11.1511 3.75179 11.3994 3.46863 11.5398 3.12967C11.6802 2.79071 11.7048 2.41489 11.6099 2.0605C11.5149 1.70611 11.3057 1.39296 11.0146 1.16961C10.7235 0.946258 10.3669 0.825195 10 0.825195C9.63311 0.825195 9.27647 0.946258 8.9854 1.16961C8.69432 1.39296 8.48508 1.70611 8.39012 2.0605C8.29517 2.41489 8.3198 2.79071 8.4602 3.12967C8.6006 3.46863 8.84893 3.75179 9.16667 3.93524V5.0419C6.89074 5.25157 4.77501 6.30314 3.23367 7.99076C1.69233 9.67837 0.836359 11.8805 0.833333 14.1661V15.8327C0.61232 15.8327 0.400358 15.9205 0.244078 16.0768C0.0877974 16.2331 0 16.4451 0 16.6661C0 16.8871 0.0877974 17.099 0.244078 17.2553C0.400358 17.4116 0.61232 17.4994 0.833333 17.4994H19.1667C19.3877 17.4994 19.5996 17.4116 19.7559 17.2553C19.9122 17.099 20 16.8871 20 16.6661C20 16.4451 19.9122 16.2331 19.7559 16.0768C19.5996 15.9205 19.3877 15.8327 19.1667 15.8327ZM2.5 14.1661C2.89417 4.22107 17.1092 4.22857 17.5 14.1661V15.8327H2.5V14.1661Z" fill="white"/>
</svg>
