<svg width="20" height="20" viewBox="0 0 20 20" fill="none" xmlns="http://www.w3.org/2000/svg">
<ellipse cx="10" cy="13.7503" rx="5" ry="2.08333" stroke="#4D3A92" stroke-width="1.5" stroke-linejoin="round"/>
<ellipse cx="10" cy="6.66699" rx="2.5" ry="2.5" stroke="#4D3A92" stroke-width="1.5" stroke-linejoin="round"/>
<path fill-rule="evenodd" clip-rule="evenodd" d="M5.62817 10.9189C4.48423 10.9397 3.42178 11.1333 2.60742 11.4591C2.17847 11.6307 1.78105 11.8538 1.47852 12.1398C1.21236 12.3915 0.981341 12.7318 0.927734 13.1495L0.916016 13.3341L0.927734 13.5177C0.981265 13.9356 1.21229 14.2757 1.47852 14.5274C1.78112 14.8136 2.17831 15.0374 2.60742 15.2091C3.07704 15.3969 3.62916 15.5406 4.23184 15.6325C3.69618 15.1142 3.37497 14.5172 3.33657 13.8797C3.27729 13.859 3.22008 13.8375 3.16504 13.8155C2.84036 13.6857 2.62779 13.5501 2.50879 13.4376C2.45522 13.3869 2.43116 13.352 2.4209 13.3331C2.43145 13.314 2.45615 13.2794 2.50879 13.2296C2.62782 13.1171 2.84048 12.9815 3.16504 12.8517C3.29653 12.7991 3.44039 12.7499 3.59526 12.7049C3.95684 12.0029 4.67329 11.3858 5.62817 10.9189Z" fill="#4D3A92"/>
<path fill-rule="evenodd" clip-rule="evenodd" d="M16.6627 13.8796C16.6243 14.5171 16.3031 15.1142 15.7674 15.6325C16.37 15.5406 16.9219 15.3969 17.3915 15.2091C17.8208 15.0374 18.2187 14.8137 18.5214 14.5275C18.8256 14.2398 19.0828 13.8367 19.0829 13.3341C19.0829 12.8313 18.8257 12.4275 18.5214 12.1398C18.2188 11.8536 17.8208 11.6308 17.3915 11.4591C16.5771 11.1333 15.5151 10.9396 14.3711 10.9189C15.326 11.3858 16.0425 12.003 16.4041 12.705C16.5588 12.75 16.7025 12.7991 16.8339 12.8517C17.1583 12.9814 17.3711 13.1171 17.4902 13.2296C17.5423 13.2789 17.5664 13.3139 17.5771 13.3331C17.5667 13.3522 17.5432 13.3874 17.4902 13.4376C17.3711 13.5501 17.1585 13.6857 16.8339 13.8155C16.779 13.8375 16.7219 13.8589 16.6627 13.8796Z" fill="#4D3A92"/>
<path fill-rule="evenodd" clip-rule="evenodd" d="M13.814 8.3458C13.6076 8.81384 13.3176 9.23672 12.9629 9.59551C13.3173 9.7994 13.7284 9.91602 14.1666 9.91602C15.501 9.91584 16.5824 8.83443 16.5826 7.5C16.5826 6.16542 15.5011 5.08318 14.1666 5.08301C14.0636 5.08301 13.9622 5.08945 13.8626 5.10195C14.0486 5.56067 14.1552 6.06003 14.1655 6.58301C14.1658 6.58301 14.1662 6.58301 14.1666 6.58301C14.6727 6.58318 15.0826 6.99385 15.0826 7.5C15.0824 8.006 14.6726 8.41584 14.1666 8.41602C14.0416 8.41602 13.9225 8.39104 13.814 8.3458Z" fill="#4D3A92"/>
<path fill-rule="evenodd" clip-rule="evenodd" d="M6.13634 5.10191C6.03698 5.08945 5.93574 5.08302 5.83301 5.08301C4.49832 5.08301 3.41602 6.16531 3.41602 7.5C3.41619 8.83454 4.49843 9.91602 5.83301 9.91602C6.27108 9.91596 6.68188 9.79938 7.03612 9.59557C6.68142 9.23678 6.39142 8.81391 6.18503 8.34588C6.07667 8.39103 5.95776 8.41597 5.83301 8.41602C5.32686 8.41602 4.91619 8.00611 4.91602 7.5C4.91602 6.99374 5.32675 6.58301 5.83301 6.58301C5.83317 6.58301 5.83334 6.58301 5.8335 6.58301C5.84376 6.06002 5.95038 5.56064 6.13634 5.10191Z" fill="#4D3A92"/>
</svg>
