<svg width="20" height="20" viewBox="0 0 20 20" fill="none" xmlns="http://www.w3.org/2000/svg">
<ellipse cx="8.33333" cy="14.5837" rx="5.83333" ry="2.91667" stroke="#4D3A92" stroke-width="1.5" stroke-linejoin="round"/>
<circle cx="8.33333" cy="5.83333" r="3.33333" stroke="#4D3A92" stroke-width="1.5" stroke-linejoin="round"/>
<path fill-rule="evenodd" clip-rule="evenodd" d="M12.6167 8.41292C12.3089 8.92293 11.9127 9.37354 11.4492 9.74346C11.7786 9.85583 12.1318 9.9168 12.4992 9.9168C14.2941 9.9168 15.7492 8.46173 15.7492 6.6668C15.7492 4.94427 14.4091 3.53473 12.7146 3.42383C12.9961 3.93459 13.1908 4.49985 13.2791 5.09975C13.8541 5.38651 14.2492 5.98052 14.2492 6.6668C14.2492 7.59382 13.5284 8.35249 12.6167 8.41292Z" fill="#4D3A92"/>
<path fill-rule="evenodd" clip-rule="evenodd" d="M15.3237 16.2467C15.6526 15.7309 15.8331 15.1698 15.8331 14.583C15.8331 14.5533 15.8326 14.5237 15.8317 14.4942C16.1841 14.3389 16.4303 14.1749 16.5808 14.0267C16.7404 13.8694 16.7497 13.7757 16.7497 13.7493C16.7497 13.7225 16.7396 13.6295 16.5808 13.473C16.4186 13.3131 16.1449 13.1349 15.7468 12.9691C15.5896 12.9035 15.4184 12.8423 15.2348 12.7861C14.7161 12.0431 13.8856 11.4009 12.8437 10.9209C14.1671 10.9562 15.388 11.1943 16.324 11.5843C16.8305 11.7954 17.2898 12.066 17.6335 12.4046C17.9797 12.7458 18.2496 13.2007 18.2497 13.7493C18.2497 14.2982 17.9799 14.7538 17.6335 15.095C17.2898 15.4337 16.8306 15.7042 16.324 15.9153C16.0187 16.0425 15.6832 16.1536 15.3237 16.2467Z" fill="#4D3A92"/>
</svg>
