<svg width="18" height="20" viewBox="0 0 18 20" fill="none" xmlns="http://www.w3.org/2000/svg">
<path d="M16.8901 0.855833C16.6554 0.587043 16.3659 0.371598 16.0411 0.22398C15.7162 0.0763624 15.3636 -8.65651e-06 15.0067 7.35941e-10L2.99174 7.3594e-10C2.63496 6.38386e-05 2.28233 0.0764907 1.95755 0.224145C1.63276 0.371799 1.34333 0.58726 1.10873 0.85605C0.874117 1.12484 0.699757 1.44073 0.597362 1.7825C0.494967 2.12427 0.466909 2.48399 0.515074 2.8375L2.36424 16.3958C2.5031 17.393 2.99712 18.3065 3.75553 18.9687C4.51394 19.6308 5.48581 19.997 6.49257 20H11.5059C12.5125 19.997 13.4843 19.6309 14.2427 18.969C15.0011 18.307 15.4952 17.3937 15.6342 16.3967L17.4834 2.8375C17.5316 2.48398 17.5037 2.12423 17.4013 1.78242C17.299 1.44061 17.1247 1.12467 16.8901 0.855833ZM13.9834 16.1717C13.8998 16.7698 13.6032 17.3178 13.1481 17.7148C12.693 18.1119 12.1099 18.3315 11.5059 18.3333H6.49257C5.88847 18.3315 5.3053 18.1118 4.85018 17.7145C4.39506 17.3173 4.09853 16.7691 4.01507 16.1708L2.83257 7.5H12.3326C12.5536 7.5 12.7656 7.4122 12.9218 7.25592C13.0781 7.09964 13.1659 6.88768 13.1659 6.66667C13.1659 6.44565 13.0781 6.23369 12.9218 6.07741C12.7656 5.92113 12.5536 5.83333 12.3326 5.83333H2.60507L2.16591 2.6125C2.14985 2.49464 2.15921 2.37471 2.19336 2.26077C2.2275 2.14682 2.28565 2.04151 2.36388 1.95191C2.44212 1.86231 2.53862 1.7905 2.64692 1.7413C2.75522 1.69209 2.87279 1.66665 2.99174 1.66667H15.0067C15.1257 1.66665 15.2433 1.69209 15.3516 1.7413C15.4599 1.7905 15.5564 1.86231 15.6346 1.95191C15.7128 2.04151 15.771 2.14682 15.8051 2.26077C15.8393 2.37471 15.8486 2.49464 15.8326 2.6125L13.9834 16.1717Z" fill="#545454"/>
</svg>
